<mxfile host="app.diagrams.net" agent="Mozilla/5.0 (Windows NT 10.0; Win64; x64) AppleWebKit/537.36 (KHTML, like Gecko) Chrome/137.0.0.0 Safari/537.36" version="27.1.6">
  <diagram name="Page-1" id="zxRaTK80urRbgllpssiV">
    <mxGraphModel dx="1188" dy="724" grid="1" gridSize="10" guides="1" tooltips="1" connect="1" arrows="1" fold="1" page="1" pageScale="1" pageWidth="827" pageHeight="1169" math="0" shadow="0">
      <root>
        <mxCell id="0" />
        <mxCell id="1" parent="0" />
        <mxCell id="j1dfEHC7ai9RexjoolgT-1" value="Owner" style="swimlane;fontStyle=0;childLayout=stackLayout;horizontal=1;startSize=26;fillColor=none;horizontalStack=0;resizeParent=1;resizeParentMax=0;resizeLast=0;collapsible=1;marginBottom=0;whiteSpace=wrap;html=1;" vertex="1" parent="1">
          <mxGeometry x="110" y="60" width="140" height="170" as="geometry" />
        </mxCell>
        <mxCell id="j1dfEHC7ai9RexjoolgT-2" value="- stands: List&amp;lt;Stand&amp;gt;" style="text;strokeColor=none;fillColor=none;align=left;verticalAlign=top;spacingLeft=4;spacingRight=4;overflow=hidden;rotatable=0;points=[[0,0.5],[1,0.5]];portConstraint=eastwest;whiteSpace=wrap;html=1;" vertex="1" parent="j1dfEHC7ai9RexjoolgT-1">
          <mxGeometry y="26" width="140" height="24" as="geometry" />
        </mxCell>
        <mxCell id="j1dfEHC7ai9RexjoolgT-14" value="" style="line;strokeWidth=1;fillColor=none;align=left;verticalAlign=middle;spacingTop=-1;spacingLeft=3;spacingRight=3;rotatable=0;labelPosition=right;points=[];portConstraint=eastwest;strokeColor=inherit;" vertex="1" parent="j1dfEHC7ai9RexjoolgT-1">
          <mxGeometry y="50" width="140" height="8" as="geometry" />
        </mxCell>
        <mxCell id="j1dfEHC7ai9RexjoolgT-15" value="+ getAvailableStands(): Optional&amp;lt;List&amp;lt;Stand&amp;gt;&amp;gt;" style="text;strokeColor=none;fillColor=none;align=left;verticalAlign=top;spacingLeft=4;spacingRight=4;overflow=hidden;rotatable=0;points=[[0,0.5],[1,0.5]];portConstraint=eastwest;whiteSpace=wrap;html=1;" vertex="1" parent="j1dfEHC7ai9RexjoolgT-1">
          <mxGeometry y="58" width="140" height="42" as="geometry" />
        </mxCell>
        <mxCell id="j1dfEHC7ai9RexjoolgT-16" value="+ getRent(): Double" style="text;strokeColor=none;fillColor=none;align=left;verticalAlign=top;spacingLeft=4;spacingRight=4;overflow=hidden;rotatable=0;points=[[0,0.5],[1,0.5]];portConstraint=eastwest;whiteSpace=wrap;html=1;" vertex="1" parent="j1dfEHC7ai9RexjoolgT-1">
          <mxGeometry y="100" width="140" height="30" as="geometry" />
        </mxCell>
        <mxCell id="j1dfEHC7ai9RexjoolgT-26" value="+ hasAvailableStand(): Boolean" style="text;strokeColor=none;fillColor=none;align=left;verticalAlign=top;spacingLeft=4;spacingRight=4;overflow=hidden;rotatable=0;points=[[0,0.5],[1,0.5]];portConstraint=eastwest;whiteSpace=wrap;html=1;" vertex="1" parent="j1dfEHC7ai9RexjoolgT-1">
          <mxGeometry y="130" width="140" height="40" as="geometry" />
        </mxCell>
        <mxCell id="j1dfEHC7ai9RexjoolgT-5" value="Seller" style="swimlane;fontStyle=0;childLayout=stackLayout;horizontal=1;startSize=26;fillColor=none;horizontalStack=0;resizeParent=1;resizeParentMax=0;resizeLast=0;collapsible=1;marginBottom=0;whiteSpace=wrap;html=1;" vertex="1" parent="1">
          <mxGeometry x="475" y="60" width="200" height="78" as="geometry" />
        </mxCell>
        <mxCell id="j1dfEHC7ai9RexjoolgT-6" value="+ products: List&amp;lt;ProductStock&amp;gt;" style="text;strokeColor=none;fillColor=none;align=left;verticalAlign=top;spacingLeft=4;spacingRight=4;overflow=hidden;rotatable=0;points=[[0,0.5],[1,0.5]];portConstraint=eastwest;whiteSpace=wrap;html=1;" vertex="1" parent="j1dfEHC7ai9RexjoolgT-5">
          <mxGeometry y="26" width="200" height="26" as="geometry" />
        </mxCell>
        <mxCell id="j1dfEHC7ai9RexjoolgT-7" value="+ stand: Strand" style="text;strokeColor=none;fillColor=none;align=left;verticalAlign=top;spacingLeft=4;spacingRight=4;overflow=hidden;rotatable=0;points=[[0,0.5],[1,0.5]];portConstraint=eastwest;whiteSpace=wrap;html=1;" vertex="1" parent="j1dfEHC7ai9RexjoolgT-5">
          <mxGeometry y="52" width="200" height="26" as="geometry" />
        </mxCell>
        <mxCell id="j1dfEHC7ai9RexjoolgT-30" value="shops at" style="edgeStyle=orthogonalEdgeStyle;rounded=0;orthogonalLoop=1;jettySize=auto;html=1;" edge="1" parent="1" source="j1dfEHC7ai9RexjoolgT-9" target="j1dfEHC7ai9RexjoolgT-5">
          <mxGeometry relative="1" as="geometry">
            <Array as="points">
              <mxPoint x="670" y="200" />
              <mxPoint x="670" y="200" />
            </Array>
          </mxGeometry>
        </mxCell>
        <mxCell id="j1dfEHC7ai9RexjoolgT-9" value="Customer" style="swimlane;fontStyle=0;childLayout=stackLayout;horizontal=1;startSize=26;fillColor=none;horizontalStack=0;resizeParent=1;resizeParentMax=0;resizeLast=0;collapsible=1;marginBottom=0;whiteSpace=wrap;html=1;" vertex="1" parent="1">
          <mxGeometry x="600" y="346" width="140" height="90" as="geometry" />
        </mxCell>
        <mxCell id="j1dfEHC7ai9RexjoolgT-10" value="+ cart: ShoppingCart" style="text;strokeColor=none;fillColor=none;align=left;verticalAlign=top;spacingLeft=4;spacingRight=4;overflow=hidden;rotatable=0;points=[[0,0.5],[1,0.5]];portConstraint=eastwest;whiteSpace=wrap;html=1;" vertex="1" parent="j1dfEHC7ai9RexjoolgT-9">
          <mxGeometry y="26" width="140" height="26" as="geometry" />
        </mxCell>
        <mxCell id="j1dfEHC7ai9RexjoolgT-11" value="+ paymentMethod: PaymentMethod" style="text;strokeColor=none;fillColor=none;align=left;verticalAlign=top;spacingLeft=4;spacingRight=4;overflow=hidden;rotatable=0;points=[[0,0.5],[1,0.5]];portConstraint=eastwest;whiteSpace=wrap;html=1;" vertex="1" parent="j1dfEHC7ai9RexjoolgT-9">
          <mxGeometry y="52" width="140" height="38" as="geometry" />
        </mxCell>
        <mxCell id="j1dfEHC7ai9RexjoolgT-18" style="edgeStyle=orthogonalEdgeStyle;rounded=0;orthogonalLoop=1;jettySize=auto;html=1;" edge="1" parent="1" source="j1dfEHC7ai9RexjoolgT-13" target="j1dfEHC7ai9RexjoolgT-5">
          <mxGeometry relative="1" as="geometry">
            <Array as="points">
              <mxPoint x="510" y="200" />
              <mxPoint x="510" y="200" />
            </Array>
          </mxGeometry>
        </mxCell>
        <mxCell id="j1dfEHC7ai9RexjoolgT-29" style="edgeStyle=orthogonalEdgeStyle;rounded=0;orthogonalLoop=1;jettySize=auto;html=1;" edge="1" parent="1" source="j1dfEHC7ai9RexjoolgT-13" target="j1dfEHC7ai9RexjoolgT-1">
          <mxGeometry relative="1" as="geometry" />
        </mxCell>
        <mxCell id="j1dfEHC7ai9RexjoolgT-13" value="&lt;p style=&quot;margin:0px;margin-top:4px;text-align:center;&quot;&gt;&lt;i&gt;&amp;lt;&amp;lt;Interface&amp;gt;&amp;gt;&lt;/i&gt;&lt;br&gt;&lt;b&gt;Person&lt;/b&gt;&lt;/p&gt;&lt;hr size=&quot;1&quot; style=&quot;border-style:solid;&quot;&gt;&lt;p style=&quot;margin:0px;margin-left:4px;&quot;&gt;- first_name: String&lt;br&gt;- last_name: String&lt;/p&gt;&lt;p style=&quot;margin:0px;margin-left:4px;&quot;&gt;- age: Integer&lt;/p&gt;&lt;p style=&quot;margin:0px;margin-left:4px;&quot;&gt;- email: String&lt;/p&gt;&lt;p style=&quot;margin:0px;margin-left:4px;&quot;&gt;- username: String&lt;/p&gt;&lt;p style=&quot;margin:0px;margin-left:4px;&quot;&gt;- password: String&lt;/p&gt;&lt;p style=&quot;margin:0px;margin-left:4px;&quot;&gt;+ personId: Long&lt;/p&gt;&lt;hr size=&quot;1&quot; style=&quot;border-style:solid;&quot;&gt;&lt;p style=&quot;margin:0px;margin-left:4px;&quot;&gt;+ login(String, String): JWTToken&lt;br&gt;+ changePassword(String): boolean&lt;/p&gt;" style="verticalAlign=top;align=left;overflow=fill;html=1;whiteSpace=wrap;" vertex="1" parent="1">
          <mxGeometry x="350" y="302" width="190" height="208" as="geometry" />
        </mxCell>
        <mxCell id="j1dfEHC7ai9RexjoolgT-17" style="edgeStyle=orthogonalEdgeStyle;rounded=0;orthogonalLoop=1;jettySize=auto;html=1;" edge="1" parent="1" source="j1dfEHC7ai9RexjoolgT-13" target="j1dfEHC7ai9RexjoolgT-9">
          <mxGeometry relative="1" as="geometry" />
        </mxCell>
        <mxCell id="j1dfEHC7ai9RexjoolgT-27" style="edgeStyle=orthogonalEdgeStyle;rounded=0;orthogonalLoop=1;jettySize=auto;html=1;" edge="1" parent="1" source="j1dfEHC7ai9RexjoolgT-20" target="j1dfEHC7ai9RexjoolgT-1">
          <mxGeometry relative="1" as="geometry">
            <Array as="points">
              <mxPoint x="270" y="140" />
              <mxPoint x="270" y="140" />
            </Array>
          </mxGeometry>
        </mxCell>
        <mxCell id="j1dfEHC7ai9RexjoolgT-28" style="edgeStyle=orthogonalEdgeStyle;rounded=0;orthogonalLoop=1;jettySize=auto;html=1;" edge="1" parent="1" source="j1dfEHC7ai9RexjoolgT-20" target="j1dfEHC7ai9RexjoolgT-5">
          <mxGeometry relative="1" as="geometry">
            <mxPoint x="330" y="252" as="sourcePoint" />
            <mxPoint x="465" y="250" as="targetPoint" />
            <Array as="points">
              <mxPoint x="460" y="99" />
              <mxPoint x="460" y="99" />
            </Array>
          </mxGeometry>
        </mxCell>
        <mxCell id="j1dfEHC7ai9RexjoolgT-20" value="Stand" style="swimlane;fontStyle=0;childLayout=stackLayout;horizontal=1;startSize=26;fillColor=none;horizontalStack=0;resizeParent=1;resizeParentMax=0;resizeLast=0;collapsible=1;marginBottom=0;whiteSpace=wrap;html=1;" vertex="1" parent="1">
          <mxGeometry x="300" y="60" width="140" height="156" as="geometry" />
        </mxCell>
        <mxCell id="j1dfEHC7ai9RexjoolgT-21" value="- standId: Long" style="text;strokeColor=none;fillColor=none;align=left;verticalAlign=top;spacingLeft=4;spacingRight=4;overflow=hidden;rotatable=0;points=[[0,0.5],[1,0.5]];portConstraint=eastwest;whiteSpace=wrap;html=1;" vertex="1" parent="j1dfEHC7ai9RexjoolgT-20">
          <mxGeometry y="26" width="140" height="26" as="geometry" />
        </mxCell>
        <mxCell id="j1dfEHC7ai9RexjoolgT-22" value="- price: Double" style="text;strokeColor=none;fillColor=none;align=left;verticalAlign=top;spacingLeft=4;spacingRight=4;overflow=hidden;rotatable=0;points=[[0,0.5],[1,0.5]];portConstraint=eastwest;whiteSpace=wrap;html=1;" vertex="1" parent="j1dfEHC7ai9RexjoolgT-20">
          <mxGeometry y="52" width="140" height="26" as="geometry" />
        </mxCell>
        <mxCell id="j1dfEHC7ai9RexjoolgT-23" value="- standUser: Seller" style="text;strokeColor=none;fillColor=none;align=left;verticalAlign=top;spacingLeft=4;spacingRight=4;overflow=hidden;rotatable=0;points=[[0,0.5],[1,0.5]];portConstraint=eastwest;whiteSpace=wrap;html=1;" vertex="1" parent="j1dfEHC7ai9RexjoolgT-20">
          <mxGeometry y="78" width="140" height="26" as="geometry" />
        </mxCell>
        <mxCell id="j1dfEHC7ai9RexjoolgT-24" value="- size: Double" style="text;strokeColor=none;fillColor=none;align=left;verticalAlign=top;spacingLeft=4;spacingRight=4;overflow=hidden;rotatable=0;points=[[0,0.5],[1,0.5]];portConstraint=eastwest;whiteSpace=wrap;html=1;" vertex="1" parent="j1dfEHC7ai9RexjoolgT-20">
          <mxGeometry y="104" width="140" height="26" as="geometry" />
        </mxCell>
        <mxCell id="j1dfEHC7ai9RexjoolgT-25" value="- standOwner: Owner" style="text;strokeColor=none;fillColor=none;align=left;verticalAlign=top;spacingLeft=4;spacingRight=4;overflow=hidden;rotatable=0;points=[[0,0.5],[1,0.5]];portConstraint=eastwest;whiteSpace=wrap;html=1;" vertex="1" parent="j1dfEHC7ai9RexjoolgT-20">
          <mxGeometry y="130" width="140" height="26" as="geometry" />
        </mxCell>
        <mxCell id="j1dfEHC7ai9RexjoolgT-49" style="edgeStyle=orthogonalEdgeStyle;rounded=0;orthogonalLoop=1;jettySize=auto;html=1;entryX=1;entryY=0.5;entryDx=0;entryDy=0;" edge="1" parent="1" source="j1dfEHC7ai9RexjoolgT-31" target="j1dfEHC7ai9RexjoolgT-44">
          <mxGeometry relative="1" as="geometry" />
        </mxCell>
        <mxCell id="j1dfEHC7ai9RexjoolgT-31" value="Product" style="swimlane;fontStyle=0;childLayout=stackLayout;horizontal=1;startSize=26;fillColor=none;horizontalStack=0;resizeParent=1;resizeParentMax=0;resizeLast=0;collapsible=1;marginBottom=0;whiteSpace=wrap;html=1;" vertex="1" parent="1">
          <mxGeometry x="870" y="60" width="140" height="130" as="geometry" />
        </mxCell>
        <mxCell id="j1dfEHC7ai9RexjoolgT-32" value="+ productId: Long" style="text;strokeColor=none;fillColor=none;align=left;verticalAlign=top;spacingLeft=4;spacingRight=4;overflow=hidden;rotatable=0;points=[[0,0.5],[1,0.5]];portConstraint=eastwest;whiteSpace=wrap;html=1;" vertex="1" parent="j1dfEHC7ai9RexjoolgT-31">
          <mxGeometry y="26" width="140" height="26" as="geometry" />
        </mxCell>
        <mxCell id="j1dfEHC7ai9RexjoolgT-33" value="+ price: Double" style="text;strokeColor=none;fillColor=none;align=left;verticalAlign=top;spacingLeft=4;spacingRight=4;overflow=hidden;rotatable=0;points=[[0,0.5],[1,0.5]];portConstraint=eastwest;whiteSpace=wrap;html=1;" vertex="1" parent="j1dfEHC7ai9RexjoolgT-31">
          <mxGeometry y="52" width="140" height="26" as="geometry" />
        </mxCell>
        <mxCell id="j1dfEHC7ai9RexjoolgT-34" value="+ name: String" style="text;strokeColor=none;fillColor=none;align=left;verticalAlign=top;spacingLeft=4;spacingRight=4;overflow=hidden;rotatable=0;points=[[0,0.5],[1,0.5]];portConstraint=eastwest;whiteSpace=wrap;html=1;" vertex="1" parent="j1dfEHC7ai9RexjoolgT-31">
          <mxGeometry y="78" width="140" height="26" as="geometry" />
        </mxCell>
        <mxCell id="j1dfEHC7ai9RexjoolgT-35" value="+ description: String" style="text;strokeColor=none;fillColor=none;align=left;verticalAlign=top;spacingLeft=4;spacingRight=4;overflow=hidden;rotatable=0;points=[[0,0.5],[1,0.5]];portConstraint=eastwest;whiteSpace=wrap;html=1;" vertex="1" parent="j1dfEHC7ai9RexjoolgT-31">
          <mxGeometry y="104" width="140" height="26" as="geometry" />
        </mxCell>
        <mxCell id="j1dfEHC7ai9RexjoolgT-63" style="edgeStyle=orthogonalEdgeStyle;rounded=0;orthogonalLoop=1;jettySize=auto;html=1;" edge="1" parent="1" source="j1dfEHC7ai9RexjoolgT-37" target="j1dfEHC7ai9RexjoolgT-9">
          <mxGeometry relative="1" as="geometry" />
        </mxCell>
        <mxCell id="j1dfEHC7ai9RexjoolgT-37" value="ShoppingCart" style="swimlane;fontStyle=0;childLayout=stackLayout;horizontal=1;startSize=26;fillColor=none;horizontalStack=0;resizeParent=1;resizeParentMax=0;resizeLast=0;collapsible=1;marginBottom=0;whiteSpace=wrap;html=1;" vertex="1" parent="1">
          <mxGeometry x="780" y="242" width="190" height="104" as="geometry" />
        </mxCell>
        <mxCell id="j1dfEHC7ai9RexjoolgT-38" value="+ cartId: Long" style="text;strokeColor=none;fillColor=none;align=left;verticalAlign=top;spacingLeft=4;spacingRight=4;overflow=hidden;rotatable=0;points=[[0,0.5],[1,0.5]];portConstraint=eastwest;whiteSpace=wrap;html=1;" vertex="1" parent="j1dfEHC7ai9RexjoolgT-37">
          <mxGeometry y="26" width="190" height="26" as="geometry" />
        </mxCell>
        <mxCell id="j1dfEHC7ai9RexjoolgT-39" value="+ customer: Customer" style="text;strokeColor=none;fillColor=none;align=left;verticalAlign=top;spacingLeft=4;spacingRight=4;overflow=hidden;rotatable=0;points=[[0,0.5],[1,0.5]];portConstraint=eastwest;whiteSpace=wrap;html=1;" vertex="1" parent="j1dfEHC7ai9RexjoolgT-37">
          <mxGeometry y="52" width="190" height="26" as="geometry" />
        </mxCell>
        <mxCell id="j1dfEHC7ai9RexjoolgT-40" value="+ products: List&amp;lt;ProductStock&amp;gt;" style="text;strokeColor=none;fillColor=none;align=left;verticalAlign=top;spacingLeft=4;spacingRight=4;overflow=hidden;rotatable=0;points=[[0,0.5],[1,0.5]];portConstraint=eastwest;whiteSpace=wrap;html=1;" vertex="1" parent="j1dfEHC7ai9RexjoolgT-37">
          <mxGeometry y="78" width="190" height="26" as="geometry" />
        </mxCell>
        <mxCell id="j1dfEHC7ai9RexjoolgT-48" style="edgeStyle=orthogonalEdgeStyle;rounded=0;orthogonalLoop=1;jettySize=auto;html=1;" edge="1" parent="1" source="j1dfEHC7ai9RexjoolgT-41" target="j1dfEHC7ai9RexjoolgT-5">
          <mxGeometry relative="1" as="geometry">
            <Array as="points">
              <mxPoint x="680" y="120" />
              <mxPoint x="680" y="120" />
            </Array>
          </mxGeometry>
        </mxCell>
        <mxCell id="j1dfEHC7ai9RexjoolgT-62" style="edgeStyle=orthogonalEdgeStyle;rounded=0;orthogonalLoop=1;jettySize=auto;html=1;" edge="1" parent="1" source="j1dfEHC7ai9RexjoolgT-41" target="j1dfEHC7ai9RexjoolgT-37">
          <mxGeometry relative="1" as="geometry" />
        </mxCell>
        <mxCell id="j1dfEHC7ai9RexjoolgT-41" value="ProductStock" style="swimlane;fontStyle=0;childLayout=stackLayout;horizontal=1;startSize=26;fillColor=none;horizontalStack=0;resizeParent=1;resizeParentMax=0;resizeLast=0;collapsible=1;marginBottom=0;whiteSpace=wrap;html=1;" vertex="1" parent="1">
          <mxGeometry x="700" y="60" width="140" height="104" as="geometry" />
        </mxCell>
        <mxCell id="j1dfEHC7ai9RexjoolgT-42" value="+ productStockId: Long" style="text;strokeColor=none;fillColor=none;align=left;verticalAlign=top;spacingLeft=4;spacingRight=4;overflow=hidden;rotatable=0;points=[[0,0.5],[1,0.5]];portConstraint=eastwest;whiteSpace=wrap;html=1;" vertex="1" parent="j1dfEHC7ai9RexjoolgT-41">
          <mxGeometry y="26" width="140" height="26" as="geometry" />
        </mxCell>
        <mxCell id="j1dfEHC7ai9RexjoolgT-44" value="+ product: Product" style="text;strokeColor=none;fillColor=none;align=left;verticalAlign=top;spacingLeft=4;spacingRight=4;overflow=hidden;rotatable=0;points=[[0,0.5],[1,0.5]];portConstraint=eastwest;whiteSpace=wrap;html=1;" vertex="1" parent="j1dfEHC7ai9RexjoolgT-41">
          <mxGeometry y="52" width="140" height="26" as="geometry" />
        </mxCell>
        <mxCell id="j1dfEHC7ai9RexjoolgT-45" value="+ amount: Integer" style="text;strokeColor=none;fillColor=none;align=left;verticalAlign=top;spacingLeft=4;spacingRight=4;overflow=hidden;rotatable=0;points=[[0,0.5],[1,0.5]];portConstraint=eastwest;whiteSpace=wrap;html=1;" vertex="1" parent="j1dfEHC7ai9RexjoolgT-41">
          <mxGeometry y="78" width="140" height="26" as="geometry" />
        </mxCell>
        <mxCell id="j1dfEHC7ai9RexjoolgT-51" style="edgeStyle=orthogonalEdgeStyle;rounded=0;orthogonalLoop=1;jettySize=auto;html=1;" edge="1" parent="1" source="j1dfEHC7ai9RexjoolgT-50" target="j1dfEHC7ai9RexjoolgT-9">
          <mxGeometry relative="1" as="geometry" />
        </mxCell>
        <mxCell id="j1dfEHC7ai9RexjoolgT-50" value="&lt;p style=&quot;margin:0px;margin-top:4px;text-align:center;&quot;&gt;&lt;i&gt;&amp;lt;&amp;lt;Interface&amp;gt;&amp;gt;&lt;/i&gt;&lt;br&gt;&lt;b&gt;PaymentMethod&lt;/b&gt;&lt;/p&gt;&lt;hr size=&quot;1&quot; style=&quot;border-style:solid;&quot;&gt;&lt;p style=&quot;margin:0px;margin-left:4px;&quot;&gt;&lt;/p&gt;&lt;p style=&quot;margin:0px;margin-left:4px;&quot;&gt;+ getType(): String&lt;br&gt;+ initialtePayment(Double): Boolean&lt;/p&gt;&lt;p style=&quot;margin:0px;margin-left:4px;&quot;&gt;+ verifyPayment(): Boolean&lt;/p&gt;" style="verticalAlign=top;align=left;overflow=fill;html=1;whiteSpace=wrap;" vertex="1" parent="1">
          <mxGeometry x="710" y="515" width="190" height="115" as="geometry" />
        </mxCell>
        <mxCell id="j1dfEHC7ai9RexjoolgT-56" style="edgeStyle=orthogonalEdgeStyle;rounded=0;orthogonalLoop=1;jettySize=auto;html=1;" edge="1" parent="1" source="j1dfEHC7ai9RexjoolgT-52" target="j1dfEHC7ai9RexjoolgT-50">
          <mxGeometry relative="1" as="geometry">
            <Array as="points">
              <mxPoint x="520" y="550" />
            </Array>
          </mxGeometry>
        </mxCell>
        <mxCell id="j1dfEHC7ai9RexjoolgT-52" value="CreditCardPayment" style="swimlane;fontStyle=0;childLayout=stackLayout;horizontal=1;startSize=26;fillColor=none;horizontalStack=0;resizeParent=1;resizeParentMax=0;resizeLast=0;collapsible=1;marginBottom=0;whiteSpace=wrap;html=1;" vertex="1" parent="1">
          <mxGeometry x="450" y="660" width="160" height="104" as="geometry" />
        </mxCell>
        <mxCell id="j1dfEHC7ai9RexjoolgT-53" value="- cardNumber: String" style="text;strokeColor=none;fillColor=none;align=left;verticalAlign=top;spacingLeft=4;spacingRight=4;overflow=hidden;rotatable=0;points=[[0,0.5],[1,0.5]];portConstraint=eastwest;whiteSpace=wrap;html=1;" vertex="1" parent="j1dfEHC7ai9RexjoolgT-52">
          <mxGeometry y="26" width="160" height="26" as="geometry" />
        </mxCell>
        <mxCell id="j1dfEHC7ai9RexjoolgT-54" value="-&amp;nbsp;expiryDate: String" style="text;strokeColor=none;fillColor=none;align=left;verticalAlign=top;spacingLeft=4;spacingRight=4;overflow=hidden;rotatable=0;points=[[0,0.5],[1,0.5]];portConstraint=eastwest;whiteSpace=wrap;html=1;" vertex="1" parent="j1dfEHC7ai9RexjoolgT-52">
          <mxGeometry y="52" width="160" height="26" as="geometry" />
        </mxCell>
        <mxCell id="j1dfEHC7ai9RexjoolgT-55" value="- cardHolderName: String" style="text;strokeColor=none;fillColor=none;align=left;verticalAlign=top;spacingLeft=4;spacingRight=4;overflow=hidden;rotatable=0;points=[[0,0.5],[1,0.5]];portConstraint=eastwest;whiteSpace=wrap;html=1;" vertex="1" parent="j1dfEHC7ai9RexjoolgT-52">
          <mxGeometry y="78" width="160" height="26" as="geometry" />
        </mxCell>
        <mxCell id="j1dfEHC7ai9RexjoolgT-61" style="edgeStyle=orthogonalEdgeStyle;rounded=0;orthogonalLoop=1;jettySize=auto;html=1;" edge="1" parent="1" source="j1dfEHC7ai9RexjoolgT-57" target="j1dfEHC7ai9RexjoolgT-50">
          <mxGeometry relative="1" as="geometry" />
        </mxCell>
        <mxCell id="j1dfEHC7ai9RexjoolgT-57" value="PayPalPayment" style="swimlane;fontStyle=0;childLayout=stackLayout;horizontal=1;startSize=26;fillColor=none;horizontalStack=0;resizeParent=1;resizeParentMax=0;resizeLast=0;collapsible=1;marginBottom=0;whiteSpace=wrap;html=1;" vertex="1" parent="1">
          <mxGeometry x="725" y="660" width="160" height="52" as="geometry" />
        </mxCell>
        <mxCell id="j1dfEHC7ai9RexjoolgT-58" value="- email: String" style="text;strokeColor=none;fillColor=none;align=left;verticalAlign=top;spacingLeft=4;spacingRight=4;overflow=hidden;rotatable=0;points=[[0,0.5],[1,0.5]];portConstraint=eastwest;whiteSpace=wrap;html=1;" vertex="1" parent="j1dfEHC7ai9RexjoolgT-57">
          <mxGeometry y="26" width="160" height="26" as="geometry" />
        </mxCell>
      </root>
    </mxGraphModel>
  </diagram>
</mxfile>
